<svg id="Layer_1" data-name="Layer 1" xmlns="http://www.w3.org/2000/svg" viewBox="0 0 2698.54 1993.39"><defs><style>.cls-1{fill:#fbb03b;}</style></defs><path class="cls-1" d="M2712,613c81,289.94-34.95,505.1,101.66,601,99.6,69.9,160-41.26,454.34,4,95.4,14.68,220.79,46.64,395.81,18.92,22.53-3.56,43.46-7.25,54.2-10.24C3973.24,1155.5,4082,756.4,4375,429c213.26-238.26,285.7-172.15,400.79-365.82,165.79-279,180.36-693.64,20.21-790.18-166.24-100.2-376.74,229.15-875,433C3080.28,50,2284.3-316.85,2214-114,2164.39,29.14,2582.41,149.16,2712,613Z" transform="translate(-2209.93 745.53)"/></svg>